<svg xmlns="http://www.w3.org/2000/svg" xmlns:xlink="http://www.w3.org/1999/xlink" version="1.1" width="256" height="256" viewBox="0 0 256 256" xml:space="preserve" style="transform: scale(-1,1)  translate(0, -100)">

<defs>
</defs>
<g style="stroke: none; stroke-width: 0; stroke-dasharray: none; stroke-linecap: butt; stroke-linejoin: miter; stroke-miterlimit: 10; fill: none; fill-rule: nonzero; opacity: 1;" transform="translate(1.4065934065934016 1.4065934065934016) scale(2.81 2.81)" >
	<path d="M 34.018 88.495 c -0.552 0 -1 -0.447 -1 -1 V 77.45 c 0 -3.868 -3.147 -7.015 -7.016 -7.015 h -5.981 c -3.868 0 -7.015 3.146 -7.015 7.015 v 10.045 c 0 0.553 -0.448 1 -1 1 s -1 -0.447 -1 -1 V 77.45 c 0 -4.971 4.044 -9.015 9.015 -9.015 h 5.981 c 4.971 0 9.016 4.044 9.016 9.015 v 10.045 C 35.018 88.048 34.57 88.495 34.018 88.495 z" style="stroke: none; stroke-width: 1; stroke-dasharray: none; stroke-linecap: butt; stroke-linejoin: miter; stroke-miterlimit: 10; fill: rgb(0,0,0); fill-rule: nonzero; opacity: 1;" transform=" matrix(1 0 0 1 0 0) " stroke-linecap="round" />
	<path d="M 23.012 70.436 c -3.916 0 -7.101 -3.186 -7.101 -7.102 v -3.7 c 0 -3.915 3.186 -7.101 7.101 -7.101 c 3.916 0 7.102 3.186 7.102 7.101 v 3.7 C 30.113 67.25 26.928 70.436 23.012 70.436 z M 23.012 54.533 c -2.813 0 -5.101 2.288 -5.101 5.101 v 3.7 c 0 2.813 2.289 5.102 5.101 5.102 c 2.813 0 5.102 -2.288 5.102 -5.102 v -3.7 C 28.113 56.821 25.825 54.533 23.012 54.533 z" style="stroke: none; stroke-width: 1; stroke-dasharray: none; stroke-linecap: butt; stroke-linejoin: miter; stroke-miterlimit: 10; fill: rgb(0,0,0); fill-rule: nonzero; opacity: 1;" transform=" matrix(1 0 0 1 0 0) " stroke-linecap="round" />
	<path d="M 56.03 88.495 c -0.553 0 -1 -0.447 -1 -1 V 77.45 c 0 -3.868 -3.147 -7.015 -7.016 -7.015 h -5.981 c -3.868 0 -7.015 3.146 -7.015 7.015 v 10.045 c 0 0.553 -0.448 1 -1 1 s -1 -0.447 -1 -1 V 77.45 c 0 -4.971 4.044 -9.015 9.015 -9.015 h 5.981 c 4.972 0 9.016 4.044 9.016 9.015 v 10.045 C 57.03 88.048 56.583 88.495 56.03 88.495 z" style="stroke: none; stroke-width: 1; stroke-dasharray: none; stroke-linecap: butt; stroke-linejoin: miter; stroke-miterlimit: 10; fill: rgb(0,0,0); fill-rule: nonzero; opacity: 1;" transform=" matrix(1 0 0 1 0 0) " stroke-linecap="round" />
	<path d="M 45.024 70.436 c -3.916 0 -7.101 -3.186 -7.101 -7.102 v -3.7 c 0 -3.915 3.186 -7.101 7.101 -7.101 s 7.101 3.186 7.101 7.101 v 3.7 C 52.125 67.25 48.939 70.436 45.024 70.436 z M 45.024 54.533 c -2.813 0 -5.101 2.288 -5.101 5.101 v 3.7 c 0 2.813 2.289 5.102 5.101 5.102 c 2.813 0 5.101 -2.288 5.101 -5.102 v -3.7 C 50.125 56.821 47.837 54.533 45.024 54.533 z" style="stroke: none; stroke-width: 1; stroke-dasharray: none; stroke-linecap: butt; stroke-linejoin: miter; stroke-miterlimit: 10; fill: rgb(0,0,0); fill-rule: nonzero; opacity: 1;" transform=" matrix(1 0 0 1 0 0) " stroke-linecap="round" />
	<path d="M 78.042 88.495 c -0.553 0 -1 -0.447 -1 -1 V 77.45 c 0 -3.868 -3.147 -7.015 -7.016 -7.015 h -5.981 c -3.868 0 -7.015 3.146 -7.015 7.015 v 10.045 c 0 0.553 -0.447 1 -1 1 s -1 -0.447 -1 -1 V 77.45 c 0 -4.971 4.044 -9.015 9.015 -9.015 h 5.981 c 4.972 0 9.016 4.044 9.016 9.015 v 10.045 C 79.042 88.048 78.595 88.495 78.042 88.495 z" style="stroke: none; stroke-width: 1; stroke-dasharray: none; stroke-linecap: butt; stroke-linejoin: miter; stroke-miterlimit: 10; fill: rgb(0,0,0); fill-rule: nonzero; opacity: 1;" transform=" matrix(1 0 0 1 0 0) " stroke-linecap="round" />
	<path d="M 67.036 70.436 c -3.916 0 -7.102 -3.186 -7.102 -7.102 v -3.7 c 0 -3.915 3.186 -7.101 7.102 -7.101 c 3.915 0 7.101 3.186 7.101 7.101 v 3.7 C 74.137 67.25 70.951 70.436 67.036 70.436 z M 67.036 54.533 c -2.813 0 -5.102 2.288 -5.102 5.101 v 3.7 c 0 2.813 2.288 5.102 5.102 5.102 c 2.813 0 5.101 -2.288 5.101 -5.102 v -3.7 C 72.137 56.821 69.849 54.533 67.036 54.533 z" style="stroke: none; stroke-width: 1; stroke-dasharray: none; stroke-linecap: butt; stroke-linejoin: miter; stroke-miterlimit: 10; fill: rgb(0,0,0); fill-rule: nonzero; opacity: 1;" transform=" matrix(1 0 0 1 0 0) " stroke-linecap="round" />
	<path d="M 23.012 54.533 c -0.552 0 -1 -0.447 -1 -1 v -1.284 c 0 -4.972 4.044 -9.016 9.016 -9.016 h 5.981 c 4.971 0 9.016 4.044 9.016 9.016 c 0 0.553 -0.448 1 -1 1 s -1 -0.447 -1 -1 c 0 -3.868 -3.147 -7.016 -7.015 -7.016 h -5.981 c -3.869 0 -7.016 3.147 -7.016 7.016 v 1.284 C 24.012 54.086 23.564 54.533 23.012 54.533 z" style="stroke: none; stroke-width: 1; stroke-dasharray: none; stroke-linecap: butt; stroke-linejoin: miter; stroke-miterlimit: 10; fill: rgb(0,0,0); fill-rule: nonzero; opacity: 1;" transform=" matrix(1 0 0 1 0 0) " stroke-linecap="round" />
	<path d="M 67.036 54.533 c -0.553 0 -1 -0.447 -1 -1 v -1.284 c 0 -3.868 -3.147 -7.016 -7.016 -7.016 h -5.981 c -3.868 0 -7.016 3.147 -7.016 7.016 v 1.284 c 0 0.553 -0.447 1 -1 1 s -1 -0.447 -1 -1 v -1.284 c 0 -4.972 4.044 -9.016 9.015 -9.016 h 5.981 c 4.972 0 9.016 4.044 9.016 9.016 v 1.284 C 68.036 54.086 67.589 54.533 67.036 54.533 z" style="stroke: none; stroke-width: 1; stroke-dasharray: none; stroke-linecap: butt; stroke-linejoin: miter; stroke-miterlimit: 10; fill: rgb(0,0,0); fill-rule: nonzero; opacity: 1;" transform=" matrix(1 0 0 1 0 0) " stroke-linecap="round" />
	<path d="M 34.018 45.233 c -3.916 0 -7.101 -3.186 -7.101 -7.101 v -3.7 c 0 -3.916 3.186 -7.101 7.101 -7.101 s 7.101 3.186 7.101 7.101 v 3.7 C 41.119 42.048 37.934 45.233 34.018 45.233 z M 34.018 29.331 c -2.813 0 -5.101 2.289 -5.101 5.101 v 3.7 c 0 2.813 2.289 5.101 5.101 5.101 s 5.101 -2.289 5.101 -5.101 v -3.7 C 39.119 31.62 36.831 29.331 34.018 29.331 z" style="stroke: none; stroke-width: 1; stroke-dasharray: none; stroke-linecap: butt; stroke-linejoin: miter; stroke-miterlimit: 10; fill: rgb(0,0,0); fill-rule: nonzero; opacity: 1;" transform=" matrix(1 0 0 1 0 0) " stroke-linecap="round" />
	<path d="M 56.03 45.233 c -3.916 0 -7.102 -3.186 -7.102 -7.101 v -3.7 c 0 -3.916 3.186 -7.101 7.102 -7.101 c 3.915 0 7.101 3.186 7.101 7.101 v 3.7 C 63.131 42.048 59.945 45.233 56.03 45.233 z M 56.03 29.331 c -2.813 0 -5.102 2.289 -5.102 5.101 v 3.7 c 0 2.813 2.288 5.101 5.102 5.101 c 2.813 0 5.101 -2.289 5.101 -5.101 v -3.7 C 61.131 31.62 58.843 29.331 56.03 29.331 z" style="stroke: none; stroke-width: 1; stroke-dasharray: none; stroke-linecap: butt; stroke-linejoin: miter; stroke-miterlimit: 10; fill: rgb(0,0,0); fill-rule: nonzero; opacity: 1;" transform=" matrix(1 0 0 1 0 0) " stroke-linecap="round" />
	<path d="M 12.006 29.331 c -0.552 0 -1 -0.448 -1 -1 v -1.908 c 0 -4.971 4.044 -9.015 9.015 -9.015 h 5.981 c 4.971 0 9.016 4.044 9.016 9.015 c 0 0.552 -0.448 1 -1 1 s -1 -0.448 -1 -1 c 0 -3.868 -3.147 -7.015 -7.016 -7.015 h -5.981 c -3.868 0 -7.015 3.147 -7.015 7.015 v 1.908 C 13.006 28.883 12.558 29.331 12.006 29.331 z" style="stroke: none; stroke-width: 1; stroke-dasharray: none; stroke-linecap: butt; stroke-linejoin: miter; stroke-miterlimit: 10; fill: rgb(0,0,0); fill-rule: nonzero; opacity: 1;" transform=" matrix(1 0 0 1 0 0) " stroke-linecap="round" />
	<path d="M 23.012 19.408 c -3.916 0 -7.101 -3.186 -7.101 -7.101 v -3.7 c 0 -3.916 3.186 -7.101 7.101 -7.101 c 3.916 0 7.102 3.186 7.102 7.101 v 3.7 C 30.113 16.222 26.928 19.408 23.012 19.408 z M 23.012 3.505 c -2.813 0 -5.101 2.289 -5.101 5.101 v 3.7 c 0 2.813 2.289 5.101 5.101 5.101 c 2.813 0 5.102 -2.289 5.102 -5.101 v -3.7 C 28.113 5.794 25.825 3.505 23.012 3.505 z" style="stroke: none; stroke-width: 1; stroke-dasharray: none; stroke-linecap: butt; stroke-linejoin: miter; stroke-miterlimit: 10; fill: rgb(0,0,0); fill-rule: nonzero; opacity: 1;" transform=" matrix(1 0 0 1 0 0) " stroke-linecap="round" />
	<path d="M 34.018 29.331 c -0.552 0 -1 -0.448 -1 -1 v -1.908 c 0 -4.971 4.044 -9.015 9.015 -9.015 h 5.981 c 4.972 0 9.016 4.044 9.016 9.015 c 0 0.552 -0.447 1 -1 1 s -1 -0.448 -1 -1 c 0 -3.868 -3.147 -7.015 -7.016 -7.015 h -5.981 c -3.868 0 -7.015 3.147 -7.015 7.015 v 1.908 C 35.018 28.883 34.57 29.331 34.018 29.331 z" style="stroke: none; stroke-width: 1; stroke-dasharray: none; stroke-linecap: butt; stroke-linejoin: miter; stroke-miterlimit: 10; fill: rgb(0,0,0); fill-rule: nonzero; opacity: 1;" transform=" matrix(1 0 0 1 0 0) " stroke-linecap="round" />
	<path d="M 45.024 19.408 c -3.916 0 -7.101 -3.186 -7.101 -7.101 v -3.7 c 0 -3.916 3.186 -7.101 7.101 -7.101 s 7.101 3.186 7.101 7.101 v 3.7 C 52.125 16.222 48.939 19.408 45.024 19.408 z M 45.024 3.505 c -2.813 0 -5.101 2.289 -5.101 5.101 v 3.7 c 0 2.813 2.289 5.101 5.101 5.101 c 2.813 0 5.101 -2.289 5.101 -5.101 v -3.7 C 50.125 5.794 47.837 3.505 45.024 3.505 z" style="stroke: none; stroke-width: 1; stroke-dasharray: none; stroke-linecap: butt; stroke-linejoin: miter; stroke-miterlimit: 10; fill: rgb(0,0,0); fill-rule: nonzero; opacity: 1;" transform=" matrix(1 0 0 1 0 0) " stroke-linecap="round" />
	<path d="M 78.042 29.331 c -0.553 0 -1 -0.448 -1 -1 v -1.908 c 0 -3.868 -3.147 -7.015 -7.016 -7.015 h -5.981 c -3.868 0 -7.015 3.147 -7.015 7.015 v 1.908 c 0 0.552 -0.447 1 -1 1 s -1 -0.448 -1 -1 v -1.908 c 0 -4.971 4.044 -9.015 9.015 -9.015 h 5.981 c 4.972 0 9.016 4.044 9.016 9.015 v 1.908 C 79.042 28.883 78.595 29.331 78.042 29.331 z" style="stroke: none; stroke-width: 1; stroke-dasharray: none; stroke-linecap: butt; stroke-linejoin: miter; stroke-miterlimit: 10; fill: rgb(0,0,0); fill-rule: nonzero; opacity: 1;" transform=" matrix(1 0 0 1 0 0) " stroke-linecap="round" />
	<path d="M 67.036 19.408 c -3.916 0 -7.102 -3.186 -7.102 -7.101 v -3.7 c 0 -3.916 3.186 -7.101 7.102 -7.101 c 3.915 0 7.101 3.186 7.101 7.101 v 3.7 C 74.137 16.222 70.951 19.408 67.036 19.408 z M 67.036 3.505 c -2.813 0 -5.102 2.289 -5.102 5.101 v 3.7 c 0 2.813 2.288 5.101 5.102 5.101 c 2.813 0 5.101 -2.289 5.101 -5.101 v -3.7 C 72.137 5.794 69.849 3.505 67.036 3.505 z" style="stroke: none; stroke-width: 1; stroke-dasharray: none; stroke-linecap: butt; stroke-linejoin: miter; stroke-miterlimit: 10; fill: rgb(0,0,0); fill-rule: nonzero; opacity: 1;" transform=" matrix(1 0 0 1 0 0) " stroke-linecap="round" />
	<path d="M 77.994 45.233 c -3.916 0 -7.102 -3.186 -7.102 -7.101 v -3.7 c 0 -3.916 3.186 -7.101 7.102 -7.101 c 3.915 0 7.101 3.186 7.101 7.101 v 3.7 C 85.095 42.048 81.909 45.233 77.994 45.233 z M 77.994 29.331 c -2.813 0 -5.102 2.289 -5.102 5.101 v 3.7 c 0 2.813 2.288 5.101 5.102 5.101 c 2.813 0 5.101 -2.289 5.101 -5.101 v -3.7 C 83.095 31.62 80.807 29.331 77.994 29.331 z" style="stroke: none; stroke-width: 1; stroke-dasharray: none; stroke-linecap: butt; stroke-linejoin: miter; stroke-miterlimit: 10; fill: rgb(0,0,0); fill-rule: nonzero; opacity: 1;" transform=" matrix(1 0 0 1 0 0) " stroke-linecap="round" />
	<path d="M 89 63.293 c -0.553 0 -1 -0.447 -1 -1 V 52.249 c 0 -3.868 -3.147 -7.016 -7.016 -7.016 h -5.981 c -3.868 0 -7.015 3.147 -7.015 7.016 v 1.284 c 0 0.553 -0.447 1 -1 1 s -1 -0.447 -1 -1 v -1.284 c 0 -4.972 4.044 -9.016 9.015 -9.016 h 5.981 c 4.972 0 9.016 4.044 9.016 9.016 v 10.044 C 90 62.846 89.553 63.293 89 63.293 z" style="stroke: none; stroke-width: 1; stroke-dasharray: none; stroke-linecap: butt; stroke-linejoin: miter; stroke-miterlimit: 10; fill: rgb(0,0,0); fill-rule: nonzero; opacity: 1;" transform=" matrix(1 0 0 1 0 0) " stroke-linecap="round" />
	<path d="M 12.006 45.233 c -3.916 0 -7.101 -3.186 -7.101 -7.101 v -3.7 c 0 -3.916 3.186 -7.101 7.101 -7.101 s 7.101 3.186 7.101 7.101 v 3.7 C 19.107 42.048 15.921 45.233 12.006 45.233 z M 12.006 29.331 c -2.813 0 -5.101 2.289 -5.101 5.101 v 3.7 c 0 2.813 2.289 5.101 5.101 5.101 s 5.101 -2.289 5.101 -5.101 v -3.7 C 17.107 31.62 14.818 29.331 12.006 29.331 z" style="stroke: none; stroke-width: 1; stroke-dasharray: none; stroke-linecap: butt; stroke-linejoin: miter; stroke-miterlimit: 10; fill: rgb(0,0,0); fill-rule: nonzero; opacity: 1;" transform=" matrix(1 0 0 1 0 0) " stroke-linecap="round" />
	<path d="M 1 63.293 c -0.552 0 -1 -0.447 -1 -1 V 52.249 c 0 -4.972 4.044 -9.016 9.015 -9.016 h 5.981 c 4.971 0 9.015 4.044 9.015 9.016 v 1.284 c 0 0.553 -0.448 1 -1 1 s -1 -0.447 -1 -1 v -1.284 c 0 -3.868 -3.147 -7.016 -7.015 -7.016 H 9.015 C 5.147 45.233 2 48.381 2 52.249 v 10.044 C 2 62.846 1.552 63.293 1 63.293 z" style="stroke: none; stroke-width: 1; stroke-dasharray: none; stroke-linecap: butt; stroke-linejoin: miter; stroke-miterlimit: 10; fill: rgb(0,0,0); fill-rule: nonzero; opacity: 1;" transform=" matrix(1 0 0 1 0 0) " stroke-linecap="round" />
</g>
</svg>