<svg xmlns="http://www.w3.org/2000/svg" xmlns:xlink="http://www.w3.org/1999/xlink" version="1.1" width="256" height="256" viewBox="0 0 256 256" xml:space="preserve" style="transform: scale(-1,1)  translate(0, -100)">

<defs>
</defs>
<g style="stroke: none; stroke-width: 0; stroke-dasharray: none; stroke-linecap: butt; stroke-linejoin: miter; stroke-miterlimit: 10; fill: none; fill-rule: nonzero; opacity: 1;" transform="translate(1.4065934065934016 1.4065934065934016) scale(2.81 2.81)" >
	<path d="M 80.899 49.213 h -8.715 c -1.657 0 -3 -1.343 -3 -3 c 0 -1.657 1.343 -3 3 -3 h 8.715 c 1.657 0 3 1.343 3 3 C 83.899 47.87 82.557 49.213 80.899 49.213 z" style="stroke: none; stroke-width: 1; stroke-dasharray: none; stroke-linecap: butt; stroke-linejoin: miter; stroke-miterlimit: 10; fill: rgb(75,109,170); fill-rule: nonzero; opacity: 1;" transform=" matrix(1 0 0 1 0 0) " stroke-linecap="round" />
	<path d="M 81.523 60.756 h -9.339 c -1.657 0 -3 -1.343 -3 -3 s 1.343 -3 3 -3 h 9.339 c 1.657 0 3 1.343 3 3 S 83.181 60.756 81.523 60.756 z" style="stroke: none; stroke-width: 1; stroke-dasharray: none; stroke-linecap: butt; stroke-linejoin: miter; stroke-miterlimit: 10; fill: rgb(75,109,170); fill-rule: nonzero; opacity: 1;" transform=" matrix(1 0 0 1 0 0) " stroke-linecap="round" />
	<path d="M 77.417 72.299 h -5.232 c -1.657 0 -3 -1.343 -3 -3 s 1.343 -3 3 -3 h 5.232 c 1.657 0 3 1.343 3 3 S 79.074 72.299 77.417 72.299 z" style="stroke: none; stroke-width: 1; stroke-dasharray: none; stroke-linecap: butt; stroke-linejoin: miter; stroke-miterlimit: 10; fill: rgb(75,109,170); fill-rule: nonzero; opacity: 1;" transform=" matrix(1 0 0 1 0 0) " stroke-linecap="round" />
	<path d="M 28.103 84.176 H 6.127 C 2.749 84.176 0 81.578 0 78.385 V 37.2 c 0 -3.193 2.749 -5.791 6.127 -5.791 h 21.976 c 2.622 0 4.864 1.564 5.737 3.758 c 5.073 -3.817 10.542 -16.055 11.02 -26.076 l 0.108 -2.266 l 2.209 -0.513 c 4.45 -1.035 8.019 -0.395 10.614 1.897 c 4.06 3.584 5.465 10.892 4.459 23.491 l 18.646 -0.03 c 4.553 0 8.253 3.7 8.253 8.248 v 1.046 c 0 1.821 -0.593 3.505 -1.596 4.872 c 1.377 1.475 2.221 3.454 2.221 5.625 v 1.046 c 0 1.929 -0.665 3.704 -1.778 5.11 C 89.243 59.064 90 60.948 90 63.005 v 1.046 c 0 3.352 -2.009 6.242 -4.886 7.531 c 0.355 0.921 0.551 1.921 0.551 2.966 v 1.046 c 0 4.549 -3.7 8.249 -8.248 8.249 l -29.586 -0.001 c -4.575 0.116 -10.077 -0.729 -14.313 -2.751 C 32.488 82.924 30.447 84.176 28.103 84.176 z M 6 78.158 c 0.032 0.01 0.074 0.018 0.127 0.018 h 21.976 c 0.052 0 0.094 -0.008 0.126 -0.018 V 68.117 l 5.22 5.743 c 1.87 2.058 7.505 4.157 14.307 3.982 h 29.661 c 1.239 0 2.248 -1.009 2.248 -2.249 v -1.046 c 0 -1.24 -1.009 -2.249 -2.248 -2.249 v -6 h 4.335 c 1.239 0 2.248 -1.009 2.248 -2.248 v -1.046 c 0 -1.24 -1.009 -2.249 -2.248 -2.249 h -0.229 v -6 c 1.24 0 2.249 -1.009 2.249 -2.248 v -1.046 c 0 -1.24 -1.009 -2.249 -2.249 -2.249 h -0.624 v -6 c 1.239 0 2.248 -1.008 2.248 -2.248 v -1.046 c 0 -1.24 -1.009 -2.248 -2.248 -2.248 l -25.272 0.041 l 0.348 -3.317 c 1.565 -14.97 -0.309 -20.056 -2.155 -21.687 c -0.516 -0.454 -1.374 -0.973 -3.167 -0.874 c -1.424 12.634 -9.145 29.927 -19.25 30.513 l -3.173 0.184 v -5.103 c -0.032 -0.01 -0.074 -0.017 -0.126 -0.017 H 6.127 c -0.053 0 -0.095 0.008 -0.127 0.017 V 78.158 z" style="stroke: none; stroke-width: 1; stroke-dasharray: none; stroke-linecap: butt; stroke-linejoin: miter; stroke-miterlimit: 10; fill: rgb(75,109,170); fill-rule: nonzero; opacity: 1;" transform=" matrix(1 0 0 1 0 0) " stroke-linecap="round" />
	<path d="M 31.229 62.77 c -1.657 0 -3 -1.343 -3 -3 V 39.35 c 0 -1.657 1.343 -3 3 -3 s 3 1.343 3 3 V 59.77 C 34.229 61.427 32.886 62.77 31.229 62.77 z" style="stroke: none; stroke-width: 1; stroke-dasharray: none; stroke-linecap: butt; stroke-linejoin: miter; stroke-miterlimit: 10; fill: rgb(75,109,170); fill-rule: nonzero; opacity: 1;" transform=" matrix(1 0 0 1 0 0) " stroke-linecap="round" />
	<path d="M 16.778 75.123 c -1.657 0 -3 -1.343 -3 -3 v -8.51 c 0 -1.657 1.343 -3 3 -3 s 3 1.343 3 3 v 8.51 C 19.778 73.78 18.435 75.123 16.778 75.123 z" style="stroke: none; stroke-width: 1; stroke-dasharray: none; stroke-linecap: butt; stroke-linejoin: miter; stroke-miterlimit: 10; fill: rgb(75,109,170); fill-rule: nonzero; opacity: 1;" transform=" matrix(1 0 0 1 0 0) " stroke-linecap="round" />
</g>
</svg>